<?xml version="1.0" encoding="UTF-8" standalone="no"?>
<svg
   xmlns:dc="http://purl.org/dc/elements/1.1/"
   xmlns:cc="http://creativecommons.org/ns#"
   xmlns:rdf="http://www.w3.org/1999/02/22-rdf-syntax-ns#"
   xmlns:svg="http://www.w3.org/2000/svg"
   xmlns="http://www.w3.org/2000/svg"
   xmlns:sodipodi="http://sodipodi.sourceforge.net/DTD/sodipodi-0.dtd"
   xmlns:inkscape="http://www.inkscape.org/namespaces/inkscape"
   width="160"
   height="44"
   version="1.1"
   id="svg24"
   sodipodi:docname="logo.svg"
   inkscape:version="1.0 (b51213c273, 2020-08-10)">
  <metadata
     id="metadata30">
    <rdf:RDF>
      <cc:Work
         rdf:about="">
        <dc:format>image/svg+xml</dc:format>
        <dc:type
           rdf:resource="http://purl.org/dc/dcmitype/StillImage" />
      </cc:Work>
    </rdf:RDF>
  </metadata>
  <defs
     id="defs28" />
  <sodipodi:namedview
     pagecolor="#ffffff"
     bordercolor="#666666"
     borderopacity="1"
     objecttolerance="10"
     gridtolerance="10"
     guidetolerance="10"
     inkscape:pageopacity="0"
     inkscape:pageshadow="2"
     inkscape:window-width="1534"
     inkscape:window-height="822"
     id="namedview26"
     showgrid="false"
     inkscape:zoom="7.7"
     inkscape:cx="80"
     inkscape:cy="22"
     inkscape:window-x="72"
     inkscape:window-y="27"
     inkscape:window-maximized="0"
     inkscape:current-layer="g22"
     inkscape:document-rotation="0" />
  <g
     transform="matrix(.08265 0 0 -.0827 -18.736 55.375)"
     id="g6">
    <path
       fill="#FCDB05"
       stroke="#FCDB05"
       stroke-width="10"
       d="M477.898 612.007c-107.844-.25-215.89-92.284-206.703-227.507 6.614-97.33 93.848-202.26 227.87-192.475 101.47 7.41 194.44 95.456 192.42 213.653-1.96 114.6-97.744 208.65-213.587 206.33m3.533-437.256c-123.62-2.002-228.5 102.77-227.64 227.46.87 125.882 103.18 228.238 229.38 226.488 124.6-1.727 225.85-98.733 224.96-230.748-.82-122.186-101.1-223.51-226.69-223.2"
       id="path2" />
    <path
       fill="#fcdb05"
       d="M515.264 390.9c14.44-20.215 31.333-37.793 47.34-56.057 18.196-20.76 18.438-20.43-3.845-36.05-7.16-5.014-14.16-10.288-20.88-15.868-6.27-5.203-10.51-6.375-15.06 2.458-12.79 24.824-43.17 77.232-46.028 76.716-2.73-.5-32.438-53.09-46.36-77.37-4.567-7.97-8.044-6.92-14.116-1.95-10.807 8.84-21.825 17.57-33.59 25.03-7.504 4.75-7.585 8.08-2.073 14.2 18.23 20.26 57.116 65.45 59.423 68.69-28.8 5.974-56.39 11.873-84.065 17.355-10.37 2.055-13.786 4.4-9.2 16.78 4.32 11.65 10.353 23.38 11.56 36.02 1.067 11.187 6.41 11.39 14.473 7.76 24.793-11.16 77.644-34.635 80.63-35.575 1.073 21.123-7.233 79.865-8.628 88.975-1.027 6.686 1.18 9.43 8.496 9.157 14.638-.545 29.38-1.074 43.94.132 11.26.932 13.05-4.163 11.42-12.94-5.17-27.87-5.52-56.143-7.755-85.808 25.865 11.322 51.147 21.774 75.85 33.45 14 6.613 16.357 6.306 19.824-7.96 2.892-11.905 7.53-23.366 11.466-34.877 4.11-12.01-1.486-13.28-9.816-15.007-27.35-5.66-54.684-11.38-83.012-17.28"
       id="path4" />
  </g>
  <g
     transform="matrix(.53656 0 0 .52273 46.09 -512.12)"
     id="g22">
    <g
       fill="#ffde05"
       id="g16"
       transform="translate(-11.182347)">
      <path
         d="m 113.6,1018.2 q -2.5,0 -4.2,-1.5 -1.7,-1.6 -1.7,-3.8 0,-2.3 1.7,-3.8 1.7,-1.5 4.3,-1.5 2.6,0 4.3,1.5 1.7,1.5 1.7,3.8 0,2.4 -1.7,3.8 -1.7,1.5 -4.4,1.5 z m 0,23.7 q -2.5,0 -4.2,-1.6 -1.7,-1.6 -1.7,-3.8 0,-2.3 1.7,-3.8 1.7,-1.5 4.3,-1.5 2.6,0 4.3,1.5 1.7,1.5 1.7,3.8 0,2.4 -1.7,3.9 -1.7,1.5 -4.4,1.5 z"
         id="path12" />
      <path
         d="m 129.6,1018.2 q -2.5,0 -4.2,-1.5 -1.7,-1.6 -1.7,-3.8 0,-2.3 1.7,-3.8 1.7,-1.5 4.3,-1.5 2.6,0 4.3,1.5 1.7,1.5 1.7,3.8 0,2.4 -1.7,3.8 -1.7,1.5 -4.4,1.5 z m 0,23.7 q -2.5,0 -4.2,-1.6 -1.7,-1.6 -1.7,-3.8 0,-2.3 1.7,-3.8 1.7,-1.5 4.3,-1.5 2.6,0 4.3,1.5 1.7,1.5 1.7,3.8 0,2.4 -1.7,3.9 -1.7,1.5 -4.4,1.5 z"
         id="path14" />
    </g>
    <path
       fill="#aaaaaa"
       d="m 62.705785,1046.0501 q -10,0 -16.2,-6.5 -6.3,-6.5 -6.3,-16.9 0,-11 6.4,-17.8 6.4,-6.8 16.9,-6.8 9.9,0 16,6.5 6.1,6.5 6.1,17.1 0,10.9 -6.4,17.6 -6.3,6.7 -16.6,6.7 z m 0.5,-39 q -5.5,0 -8.7,4.1 -3.2,4.1 -3.2,10.9 0,6.9 3.2,10.9 3.2,4 8.5,4 5.4,0 8.6,-3.9 3.2,-3.9 3.2,-10.8 0,-7.2 -3.1,-11.2 -3.1,-4 -8.4,-4 z"
       id="path18" />
    <path
       fill="#aaaaaa"
       d="m 29.769442,1027.0964 q 0,9.3 -4.3,14.3 -4.3,4.9 -12.5,4.9 -3.6999997,0 -6.7999997,-1.3 v -9.8 q 2.7,2 5.9999997,2 7.1,0 7.1,-10.6 v -27.60002 h 10.5 v 28.00002 z"
       id="path20" />
    <text
       xml:space="preserve"
       style="font-style:normal;font-weight:normal;font-size:87.4938px;line-height:1.25;font-family:sans-serif;fill:#000000;fill-opacity:1;stroke:none;stroke-width:2.18735"
       x="130.6366"
       y="1019.3438"
       id="text34"
       transform="scale(0.97446894,1.0262)"><tspan
         sodipodi:role="line"
         id="tspan32"
         x="130.6366"
         y="1019.3438"
         style="font-style:normal;font-variant:normal;font-weight:bold;font-stretch:normal;font-size:64.1621px;font-family:sans-serif;-inkscape-font-specification:'sans-serif Bold';fill:#ececec;stroke-width:2.18735">EL</tspan></text>
  </g>
</svg>
